<svg width="40" height="40" viewBox="0 0 40 40" fill="none" xmlns="http://www.w3.org/2000/svg">
<rect width="40" height="40" rx="5" fill="#44B367"/>
<g clip-path="url(#clip0_1408_10596)">
<path d="M22.5312 14.9375H17.4688L16.1574 12.3184C16.0941 12.1918 16.0625 12.0512 16.0625 11.9105C16.0625 11.4078 16.4703 11 16.973 11H23.027C23.5297 11 23.9375 11.4078 23.9375 11.9105C23.9375 12.0512 23.9059 12.1918 23.8426 12.3184L22.5312 14.9375ZM16.9625 16.625H23.0375L24.7496 18.0523C27.0875 20 28.4375 22.8828 28.4375 25.9238C28.4375 27.6219 27.0594 29 25.3613 29H14.6352C12.9406 29 11.5625 27.6219 11.5625 25.9238C11.5625 22.8828 12.9125 20 15.2504 18.0523L16.9625 16.625ZM20.1406 18.875C19.7539 18.875 19.4375 19.1914 19.4375 19.5781V19.7188C18.425 19.7293 17.6094 20.552 17.6094 21.5645C17.6094 22.468 18.2598 23.2379 19.1527 23.3855L20.6188 23.6316C20.8297 23.6668 20.9844 23.8496 20.9844 24.0641C20.9844 24.3066 20.7875 24.5035 20.5449 24.5035L18.5938 24.5C18.207 24.5 17.8906 24.8164 17.8906 25.2031C17.8906 25.5898 18.207 25.9062 18.5938 25.9062H19.4375V26.0469C19.4375 26.4336 19.7539 26.75 20.1406 26.75C20.5273 26.75 20.8438 26.4336 20.8438 26.0469V25.8816C21.7227 25.7375 22.3906 24.9781 22.3906 24.0605C22.3906 23.157 21.7402 22.3871 20.8473 22.2395L19.3812 21.9934C19.1703 21.9582 19.0156 21.7754 19.0156 21.5609C19.0156 21.3184 19.2125 21.1215 19.4551 21.1215H21.125C21.5117 21.1215 21.8281 20.8051 21.8281 20.4184C21.8281 20.0316 21.5117 19.7152 21.125 19.7152H20.8438V19.5746C20.8438 19.1879 20.5273 18.8715 20.1406 18.8715V18.875Z" fill="white"/>
</g>
<defs>
<clipPath id="clip0_1408_10596">
<rect width="18" height="18" fill="white" transform="translate(11 11)"/>
</clipPath>
</defs>
</svg>
