<svg width="40" height="40" viewBox="0 0 40 40" fill="none" xmlns="http://www.w3.org/2000/svg">
<rect width="40" height="40" rx="5" fill="#8056CF"/>
<path d="M26.75 17.75V15.8C26.75 14.8063 26.09 14 25.277 14H13.223C12.4092 14 11.75 14.8063 11.75 15.8V24.2C11.75 25.1938 12.41 26 13.223 26H25.277C26.0907 26 26.75 25.1938 26.75 24.2V22.25M26 20H26.0075M23.45 17.75H27.05C27.3683 17.75 27.6735 17.8764 27.8985 18.1015C28.1236 18.3265 28.25 18.6317 28.25 18.95V21.05C28.25 21.3683 28.1236 21.6735 27.8985 21.8985C27.6735 22.1236 27.3683 22.25 27.05 22.25H23.45C23.1317 22.25 22.8265 22.1236 22.6015 21.8985C22.3764 21.6735 22.25 21.3683 22.25 21.05V18.95C22.25 18.6317 22.3764 18.3265 22.6015 18.1015C22.8265 17.8764 23.1317 17.75 23.45 17.75Z" stroke="white" stroke-width="1.125" stroke-linecap="round" stroke-linejoin="round"/>
</svg>
