<svg width="40" height="40" viewBox="0 0 40 40" fill="none" xmlns="http://www.w3.org/2000/svg">
<rect width="40" height="40" rx="5" fill="#DC0A06"/>
<g clip-path="url(#clip0_1408_10605)">
<path d="M16.2188 11.8438C16.2188 11.3762 16.5949 11 17.0625 11C17.5301 11 17.9062 11.3762 17.9062 11.8438V13.25H19.875C20.4973 13.25 21 13.7527 21 14.375C21 14.9973 20.4973 15.5 19.875 15.5H15.8355C14.9602 15.5 14.25 16.2102 14.25 17.0855C14.25 17.8766 14.8301 18.5445 15.6105 18.657L18.8309 19.1176C20.7223 19.3883 22.125 21.0055 22.125 22.9145C22.125 25.0344 20.4059 26.75 18.2895 26.75H17.9062V28.1562C17.9062 28.6238 17.5301 29 17.0625 29C16.5949 29 16.2188 28.6238 16.2188 28.1562V26.75H13.6875C13.0652 26.75 12.5625 26.2473 12.5625 25.625C12.5625 25.0027 13.0652 24.5 13.6875 24.5H18.2895C19.1648 24.5 19.875 23.7898 19.875 22.9145C19.875 22.1234 19.2949 21.4555 18.5145 21.343L15.2941 20.8824C13.4027 20.6152 12 18.9945 12 17.0855C12 14.9691 13.7191 13.25 15.8355 13.25H16.2188V11.8438Z" fill="white"/>
</g>
<defs>
<clipPath id="clip0_1408_10605">
<rect width="11.25" height="18" fill="white" transform="translate(11 11)"/>
</clipPath>
</defs>
</svg>
