<svg width="40" height="40" viewBox="0 0 40 40" fill="none" xmlns="http://www.w3.org/2000/svg">
<rect width="40" height="40" rx="5" fill="#457DF3"/>
<g clip-path="url(#clip0_1430_12477)">
<path d="M19.3182 14.6072C19.1955 14.2585 18.9676 13.9565 18.666 13.7429C18.3644 13.5292 18.0039 13.4144 17.6343 13.4143H16.2503C15.8577 13.4154 15.4793 13.5613 15.1876 13.8241C14.8959 14.0868 14.7113 14.4479 14.6693 14.8383C14.6273 15.2286 14.7308 15.6208 14.9599 15.9396C15.189 16.2584 15.5277 16.4815 15.911 16.5661L18.0146 17.0268C18.445 17.1208 18.8256 17.3705 19.083 17.728C19.3404 18.0856 19.4566 18.5256 19.4092 18.9636C19.3618 19.4016 19.1541 19.8067 18.8261 20.1008C18.4982 20.395 18.073 20.5575 17.6325 20.5572H16.4414C16.0722 20.5573 15.712 20.4431 15.4105 20.2301C15.1089 20.0171 14.8808 19.7159 14.7575 19.3679M17.0396 13.4143V11.6286M17.0396 22.3429V20.5572M20.445 32.1054V22.7304C20.445 22.1384 20.6801 21.5706 21.0987 21.152C21.5174 20.7334 22.0851 20.4982 22.6771 20.4982C23.2691 20.4982 23.8369 20.7334 24.2555 21.152C24.6741 21.5706 24.9093 22.1384 24.9093 22.7304V27.6411H28.4807C29.4279 27.6411 30.3363 28.0174 31.0061 28.6871C31.6758 29.3569 32.0521 30.2653 32.0521 31.2125V32.1054" stroke="white" stroke-width="1.28571" stroke-linecap="round" stroke-linejoin="round"/>
<path d="M17.0411 25.0786C15.3936 25.0783 13.7854 24.5752 12.4315 23.6363C11.0777 22.6975 10.0427 21.3677 9.46495 19.8248C8.88721 18.2818 8.79427 16.5993 9.19854 15.0021C9.60281 13.405 10.485 11.9693 11.7272 10.887C12.9694 9.80473 14.5125 9.12748 16.1499 8.94578C17.7874 8.76409 19.4414 9.08661 20.8906 9.87024C22.3399 10.6539 23.5154 11.8612 24.2599 13.3309C25.0045 14.8006 25.2827 16.4626 25.0572 18.0946" stroke="white" stroke-width="1.28571" stroke-linecap="round"/>
</g>
<defs>
<clipPath id="clip0_1430_12477">
<rect width="25" height="25" fill="white" transform="translate(8 8)"/>
</clipPath>
</defs>
</svg>
